<svg width="27" height="37" viewBox="0 0 27 37" fill="none" xmlns="http://www.w3.org/2000/svg">
<path d="M16 21H0V17H16" fill="#37D348"/>
<path fill-rule="evenodd" clip-rule="evenodd" d="M0 16.787C0 16.3523 0.334012 16 0.746037 16H15.254C15.666 16 16 16.3523 16 16.787C16 17.2216 15.666 17.574 15.254 17.574H1.49207V19.426H15.254C15.666 19.426 16 19.7784 16 20.213C16 20.6477 15.666 21 15.254 21H0.746037C0.334012 21 0 20.6477 0 20.213V16.787Z" fill="#37D348"/>
<path d="M27 36L27 1L22 1V36H27Z" fill="#37D348"/>
<path fill-rule="evenodd" clip-rule="evenodd" d="M26.236 0C26.6579 0 27 0.353862 27 0.790373L27 36.2096C27 36.6461 26.6579 37 26.236 37H21.764C21.3421 37 21 36.6461 21 36.2096V0.790373C21 0.353862 21.3421 0 21.764 0L26.236 0ZM25.472 1.58075L22.528 1.58075V35.4193H25.472L25.472 1.58075Z" fill="#37D348"/>
<path fill-rule="evenodd" clip-rule="evenodd" d="M21.3388 0C21.704 0 22 0.353661 22 0.789923L22 36.2101C22 36.6463 21.704 37 21.3388 37H18.306C17.4292 37 16.5883 36.5839 15.9683 35.8432C15.3483 35.1025 15 34.0979 15 33.0504L15 3.94962C15 2.90211 15.3483 1.89751 15.9683 1.15681C16.5883 0.416115 17.4292 0 18.306 0L21.3388 0ZM20.6776 1.57985L18.306 1.57985C17.78 1.57985 17.2754 1.82952 16.9034 2.27393C16.5314 2.71835 16.3224 3.32111 16.3224 3.94962V33.0504C16.3224 33.6789 16.5314 34.2816 16.9034 34.7261C17.2754 35.1705 17.78 35.4202 18.306 35.4202H20.6776L20.6776 1.57985Z" fill="#37D348"/>
</svg>
