<svg width="211" height="221" viewBox="0 0 211 221" fill="none" xmlns="http://www.w3.org/2000/svg">
<path d="M9.95519 19.9104C15.4533 19.9104 19.9104 15.4533 19.9104 9.95521C19.9104 4.4571 15.4533 0 9.95519 0C4.45708 0 0 4.4571 0 9.95521C0 15.4533 4.45708 19.9104 9.95519 19.9104Z" fill="#BADAF4"/>
<path d="M52.84 9.76133C52.84 14.9623 48.6229 19.1792 43.4219 19.1792C38.2209 19.1792 34.0039 14.9623 34.0039 9.76133C34.0039 4.56033 38.2209 0.343262 43.4219 0.343262C48.6229 0.343262 52.84 4.56033 52.84 9.76133Z" fill="#BADAF4"/>
<path d="M83.2489 9.75579C83.2489 14.6305 79.298 18.5814 74.4233 18.5814C69.5486 18.5814 65.5977 14.6305 65.5977 9.75579C65.5977 4.88111 69.5486 0.930176 74.4233 0.930176C79.298 0.930176 83.2489 4.88111 83.2489 9.75579Z" fill="#BADAF4"/>
<path d="M112.485 9.5779C112.485 14.056 108.855 17.6857 104.377 17.6857C99.8992 17.6857 96.2695 14.056 96.2695 9.5779C96.2695 5.09982 99.8992 1.47021 104.377 1.47021C108.855 1.47021 112.485 5.09982 112.485 9.5779Z" fill="#BADAF4"/>
<path d="M140.22 9.95489C140.22 14.187 136.791 17.6158 132.559 17.6158C128.327 17.6158 124.898 14.187 124.898 9.95489C124.898 5.7228 128.327 2.29395 132.559 2.29395C136.791 2.29395 140.22 5.7228 140.22 9.95489Z" fill="#BADAF4"/>
<path d="M165.661 9.95891C165.661 13.9249 162.443 17.1429 158.477 17.1429C154.511 17.1429 151.293 13.9249 151.293 9.95891C151.293 5.9929 154.511 2.7749 158.477 2.7749C162.443 2.7749 165.661 5.98788 165.661 9.95891Z" fill="#BADAF4"/>
<path d="M189.521 9.95725C189.521 13.6622 186.519 16.6643 182.809 16.6643C179.104 16.6643 176.102 13.6622 176.102 9.95725C176.102 6.25229 179.104 3.24512 182.809 3.24512C186.519 3.24512 189.521 6.24727 189.521 9.95725Z" fill="#BADAF4"/>
<path d="M211.001 9.95828C211.001 13.352 208.249 16.1031 204.856 16.1031C201.462 16.1031 198.711 13.352 198.711 9.95828C198.711 6.56458 201.462 3.81348 204.856 3.81348C208.249 3.81348 211.001 6.56458 211.001 9.95828Z" fill="#BADAF4"/>
<path d="M9.95519 48.531C15.4533 48.531 19.9104 44.0739 19.9104 38.5758C19.9104 33.0777 15.4533 28.6206 9.95519 28.6206C4.45708 28.6206 0 33.0777 0 38.5758C0 44.0739 4.45708 48.531 9.95519 48.531Z" fill="#BADAF4"/>
<path d="M52.84 38.3839C52.84 43.5849 48.6229 47.802 43.4219 47.802C38.2209 47.802 34.0039 43.5849 34.0039 38.3839C34.0039 33.1829 38.2209 28.9658 43.4219 28.9658C48.6229 28.9608 52.84 33.1829 52.84 38.3839Z" fill="#BADAF4"/>
<path d="M83.2489 38.3891C83.2489 43.2638 79.298 47.2147 74.4233 47.2147C69.5486 47.2147 65.5977 43.2638 65.5977 38.3891C65.5977 33.5144 69.5486 29.5635 74.4233 29.5635C79.298 29.5635 83.2489 33.5144 83.2489 38.3891Z" fill="#BADAF4"/>
<path d="M112.485 38.1899C112.485 42.668 108.855 46.2976 104.377 46.2976C99.8992 46.2976 96.2695 42.668 96.2695 38.1899C96.2695 33.7118 99.8992 30.082 104.377 30.082C108.855 30.0871 112.485 33.7118 112.485 38.1899Z" fill="#BADAF4"/>
<path d="M140.22 38.576C140.22 42.8081 136.791 46.2369 132.559 46.2369C128.327 46.2369 124.898 42.8081 124.898 38.576C124.898 34.3439 128.327 30.915 132.559 30.915C136.791 30.915 140.22 34.3489 140.22 38.576Z" fill="#BADAF4"/>
<path d="M165.661 38.5815C165.661 42.5475 162.443 45.7655 158.477 45.7655C154.511 45.7655 151.293 42.5475 151.293 38.5815C151.293 34.6155 154.511 31.3975 158.477 31.3975C162.443 31.3975 165.661 34.6155 165.661 38.5815Z" fill="#BADAF4"/>
<path d="M189.521 38.5783C189.521 42.2833 186.519 45.2854 182.809 45.2854C179.104 45.2854 176.102 42.2833 176.102 38.5783C176.102 34.8734 179.104 31.8662 182.809 31.8662C186.519 31.8712 189.521 34.8734 189.521 38.5783Z" fill="#BADAF4"/>
<path d="M211.001 38.5804C211.001 41.9741 208.249 44.7252 204.856 44.7252C201.462 44.7252 198.711 41.9741 198.711 38.5804C198.711 35.1867 201.462 32.4355 204.856 32.4355C208.249 32.4355 211.001 35.1867 211.001 38.5804Z" fill="#BADAF4"/>
<path d="M9.95519 77.1536C15.4533 77.1536 19.9104 72.6965 19.9104 67.1984C19.9104 61.7003 15.4533 57.2432 9.95519 57.2432C4.45708 57.2432 0 61.7003 0 67.1984C0 72.6965 4.45708 77.1536 9.95519 77.1536Z" fill="#BADAF4"/>
<path d="M52.84 67.0045C52.84 72.2055 48.6229 76.4226 43.4219 76.4226C38.2209 76.4226 34.0039 72.2055 34.0039 67.0045C34.0039 61.8035 38.2209 57.5864 43.4219 57.5864C48.6229 57.5864 52.84 61.8035 52.84 67.0045Z" fill="#BADAF4"/>
<path d="M83.2489 67.0097C83.2489 71.8844 79.298 75.8353 74.4233 75.8353C69.5486 75.8353 65.5977 71.8844 65.5977 67.0097C65.5977 62.135 69.5486 58.1841 74.4233 58.1841C79.298 58.1841 83.2489 62.135 83.2489 67.0097Z" fill="#BADAF4"/>
<path d="M112.485 66.8217C112.485 71.2998 108.855 74.9294 104.377 74.9294C99.8992 74.9294 96.2695 71.2998 96.2695 66.8217C96.2695 62.3436 99.8992 58.7139 104.377 58.7139C108.855 58.7139 112.485 62.3436 112.485 66.8217Z" fill="#BADAF4"/>
<path d="M140.22 67.1985C140.22 71.4306 136.791 74.8595 132.559 74.8595C128.327 74.8595 124.898 71.4306 124.898 67.1985C124.898 62.9664 128.327 59.5376 132.559 59.5376C136.791 59.5376 140.22 62.9664 140.22 67.1985Z" fill="#BADAF4"/>
<path d="M165.661 67.2026C165.661 71.1686 162.443 74.3866 158.477 74.3866C154.511 74.3866 151.293 71.1686 151.293 67.2026C151.293 63.2365 154.511 60.0186 158.477 60.0186C162.443 60.0186 165.661 63.2365 165.661 67.2026Z" fill="#BADAF4"/>
<path d="M189.521 67.2009C189.521 70.9059 186.519 73.908 182.809 73.908C179.104 73.908 176.102 70.9059 176.102 67.2009C176.102 63.4959 179.104 60.4888 182.809 60.4888C186.519 60.4888 189.521 63.4959 189.521 67.2009Z" fill="#BADAF4"/>
<path d="M211.001 67.2014C211.001 70.5952 208.249 73.3463 204.856 73.3463C201.462 73.3463 198.711 70.5952 198.711 67.2014C198.711 63.8077 201.462 61.0566 204.856 61.0566C208.249 61.0566 211.001 63.8077 211.001 67.2014Z" fill="#BADAF4"/>
<path d="M9.95519 105.785C15.4533 105.785 19.9104 101.328 19.9104 95.8297C19.9104 90.3316 15.4533 85.8745 9.95519 85.8745C4.45708 85.8745 0 90.3316 0 95.8297C0 101.328 4.45708 105.785 9.95519 105.785Z" fill="#BADAF4"/>
<path d="M52.84 95.6357C52.84 100.837 48.6229 105.054 43.4219 105.054C38.2209 105.054 34.0039 100.837 34.0039 95.6357C34.0039 90.4347 38.2209 86.2178 43.4219 86.2178C48.6229 86.2178 52.84 90.4347 52.84 95.6357Z" fill="#BADAF4"/>
<path d="M83.2489 95.6303C83.2489 100.505 79.298 104.456 74.4233 104.456C69.5486 104.456 65.5977 100.505 65.5977 95.6303C65.5977 90.7556 69.5486 86.8047 74.4233 86.8047C79.298 86.8047 83.2489 90.7556 83.2489 95.6303Z" fill="#BADAF4"/>
<path d="M112.485 95.4436C112.485 99.9217 108.855 103.551 104.377 103.551C99.8992 103.551 96.2695 99.9217 96.2695 95.4436C96.2695 90.9655 99.8992 87.3359 104.377 87.3359C108.855 87.341 112.485 90.9706 112.485 95.4436Z" fill="#BADAF4"/>
<path d="M140.22 95.8279C140.22 100.06 136.791 103.489 132.559 103.489C128.327 103.489 124.898 100.06 124.898 95.8279C124.898 91.5958 128.327 88.167 132.559 88.167C136.791 88.167 140.22 91.5958 140.22 95.8279Z" fill="#BADAF4"/>
<path d="M165.661 95.8246C165.661 99.7906 162.443 103.009 158.477 103.009C154.511 103.009 151.293 99.7906 151.293 95.8246C151.293 91.8586 154.511 88.6406 158.477 88.6406C162.443 88.6406 165.661 91.8536 165.661 95.8246Z" fill="#BADAF4"/>
<path d="M189.521 95.8215C189.521 99.5265 186.519 102.529 182.809 102.529C179.104 102.529 176.102 99.5265 176.102 95.8215C176.102 92.1165 179.104 89.1094 182.809 89.1094C186.519 89.1094 189.521 92.1115 189.521 95.8215Z" fill="#BADAF4"/>
<path d="M211.001 95.824C211.001 99.2177 208.249 101.969 204.856 101.969C201.462 101.969 198.711 99.2177 198.711 95.824C198.711 92.4303 201.462 89.6792 204.856 89.6792C208.249 89.6792 211.001 92.4303 211.001 95.824Z" fill="#BADAF4"/>
<path d="M9.95519 134.406C15.4533 134.406 19.9104 129.949 19.9104 124.451C19.9104 118.953 15.4533 114.496 9.95519 114.496C4.45708 114.496 0 118.953 0 124.451C0 129.949 4.45708 134.406 9.95519 134.406Z" fill="#BADAF4"/>
<path d="M52.84 124.246C52.84 129.447 48.6229 133.664 43.4219 133.664C38.2209 133.664 34.0039 129.447 34.0039 124.246C34.0039 119.045 38.2209 114.828 43.4219 114.828C48.6229 114.828 52.84 119.045 52.84 124.246Z" fill="#BADAF4"/>
<path d="M83.2489 124.253C83.2489 129.128 79.298 133.078 74.4233 133.078C69.5486 133.078 65.5977 129.128 65.5977 124.253C65.5977 119.378 69.5486 115.427 74.4233 115.427C79.298 115.432 83.2489 119.383 83.2489 124.253Z" fill="#BADAF4"/>
<path d="M112.485 124.065C112.485 128.543 108.855 132.173 104.377 132.173C99.8992 132.173 96.2695 128.543 96.2695 124.065C96.2695 119.587 99.8992 115.957 104.377 115.957C108.855 115.957 112.485 119.587 112.485 124.065Z" fill="#BADAF4"/>
<path d="M140.22 124.45C140.22 128.683 136.791 132.111 132.559 132.111C128.327 132.111 124.898 128.683 124.898 124.45C124.898 120.218 128.327 116.79 132.559 116.79C136.791 116.79 140.22 120.218 140.22 124.45Z" fill="#BADAF4"/>
<path d="M165.661 124.444C165.661 128.41 162.443 131.628 158.477 131.628C154.511 131.628 151.293 128.41 151.293 124.444C151.293 120.478 154.511 117.26 158.477 117.26C162.443 117.26 165.661 120.478 165.661 124.444Z" fill="#BADAF4"/>
<path d="M189.521 124.448C189.521 128.153 186.519 131.155 182.809 131.155C179.104 131.155 176.102 128.153 176.102 124.448C176.102 120.743 179.104 117.741 182.809 117.741C186.519 117.741 189.521 120.743 189.521 124.448Z" fill="#BADAF4"/>
<path d="M211.001 124.445C211.001 127.838 208.249 130.589 204.856 130.589C201.462 130.589 198.711 127.838 198.711 124.445C198.711 121.051 201.462 118.3 204.856 118.3C208.249 118.3 211.001 121.051 211.001 124.445Z" fill="#BADAF4"/>
<path d="M19.9104 153.073C19.9104 158.571 15.4524 163.029 9.95519 163.029C4.45799 163.029 0 158.571 0 153.073C0 147.576 4.45799 143.118 9.95519 143.118C15.4524 143.118 19.9104 147.571 19.9104 153.073Z" fill="#BADAF4"/>
<path d="M52.84 152.878C52.84 158.079 48.6229 162.296 43.4219 162.296C38.2209 162.296 34.0039 158.079 34.0039 152.878C34.0039 147.677 38.2209 143.459 43.4219 143.459C48.6229 143.459 52.84 147.677 52.84 152.878Z" fill="#BADAF4"/>
<path d="M83.2489 152.874C83.2489 157.749 79.298 161.7 74.4233 161.7C69.5486 161.7 65.5977 157.749 65.5977 152.874C65.5977 147.999 69.5486 144.048 74.4233 144.048C79.298 144.048 83.2489 147.999 83.2489 152.874Z" fill="#BADAF4"/>
<path d="M112.485 152.696C112.485 157.174 108.855 160.804 104.377 160.804C99.8992 160.804 96.2695 157.174 96.2695 152.696C96.2695 148.218 99.8992 144.588 104.377 144.588C108.855 144.588 112.485 148.218 112.485 152.696Z" fill="#BADAF4"/>
<path d="M140.22 153.071C140.22 157.303 136.791 160.732 132.559 160.732C128.327 160.732 124.898 157.303 124.898 153.071C124.898 148.839 128.327 145.41 132.559 145.41C136.791 145.41 140.22 148.839 140.22 153.071Z" fill="#BADAF4"/>
<path d="M165.661 153.077C165.661 157.043 162.443 160.261 158.477 160.261C154.511 160.261 151.293 157.043 151.293 153.077C151.293 149.111 154.511 145.893 158.477 145.893C162.443 145.893 165.661 149.111 165.661 153.077Z" fill="#BADAF4"/>
<path d="M189.521 153.07C189.521 156.775 186.519 159.777 182.809 159.777C179.104 159.777 176.102 156.775 176.102 153.07C176.102 149.365 179.104 146.363 182.809 146.363C186.519 146.358 189.521 149.365 189.521 153.07Z" fill="#BADAF4"/>
<path d="M211.001 153.076C211.001 156.47 208.249 159.221 204.856 159.221C201.462 159.221 198.711 156.47 198.711 153.076C198.711 149.682 201.462 146.931 204.856 146.931C208.249 146.931 211.001 149.682 211.001 153.076Z" fill="#BADAF4"/>
<path d="M19.9104 181.694C19.9104 187.191 15.4524 191.649 9.95519 191.649C4.45799 191.649 0 187.191 0 181.694C0 176.197 4.45799 171.739 9.95519 171.739C15.4524 171.739 19.9104 176.197 19.9104 181.694Z" fill="#BADAF4"/>
<path d="M52.84 181.498C52.84 186.699 48.6229 190.916 43.4219 190.916C38.2209 190.916 34.0039 186.699 34.0039 181.498C34.0039 176.297 38.2209 172.08 43.4219 172.08C48.6229 172.08 52.84 176.297 52.84 181.498Z" fill="#BADAF4"/>
<path d="M83.2489 181.505C83.2489 186.38 79.298 190.331 74.4233 190.331C69.5486 190.331 65.5977 186.38 65.5977 181.505C65.5977 176.631 69.5486 172.68 74.4233 172.68C79.298 172.68 83.2489 176.631 83.2489 181.505Z" fill="#BADAF4"/>
<path d="M112.485 181.307C112.485 185.785 108.855 189.414 104.377 189.414C99.8992 189.414 96.2695 185.785 96.2695 181.307C96.2695 176.828 99.8992 173.199 104.377 173.199C108.855 173.204 112.485 176.828 112.485 181.307Z" fill="#BADAF4"/>
<path d="M140.22 181.694C140.22 185.926 136.791 189.355 132.559 189.355C128.327 189.355 124.898 185.926 124.898 181.694C124.898 177.462 128.327 174.033 132.559 174.033C136.791 174.033 140.22 177.462 140.22 181.694Z" fill="#BADAF4"/>
<path d="M165.661 181.696C165.661 185.662 162.443 188.88 158.477 188.88C154.511 188.88 151.293 185.662 151.293 181.696C151.293 177.73 154.511 174.512 158.477 174.512C162.443 174.512 165.661 177.73 165.661 181.696Z" fill="#BADAF4"/>
<path d="M189.521 181.691C189.521 185.396 186.519 188.404 182.809 188.404C179.104 188.404 176.102 185.401 176.102 181.691C176.102 177.986 179.104 174.984 182.809 174.984C186.519 174.984 189.521 177.986 189.521 181.691Z" fill="#BADAF4"/>
<path d="M211.001 181.697C211.001 185.09 208.249 187.841 204.856 187.841C201.462 187.841 198.711 185.09 198.711 181.697C198.711 178.303 201.462 175.552 204.856 175.552C208.249 175.557 211.001 178.303 211.001 181.697Z" fill="#BADAF4"/>
<path d="M19.9104 210.317C19.9104 215.814 15.4524 220.272 9.95519 220.272C4.45799 220.272 0 215.814 0 210.317C0 204.819 4.45799 200.361 9.95519 200.361C15.4524 200.361 19.9104 204.819 19.9104 210.317Z" fill="#BADAF4"/>
<path d="M52.84 210.121C52.84 215.322 48.6229 219.539 43.4219 219.539C38.2209 219.539 34.0039 215.322 34.0039 210.121C34.0039 204.92 38.2209 200.703 43.4219 200.703C48.6229 200.703 52.84 204.92 52.84 210.121Z" fill="#BADAF4"/>
<path d="M83.2489 210.126C83.2489 215.001 79.298 218.952 74.4233 218.952C69.5486 218.952 65.5977 215.001 65.5977 210.126C65.5977 205.251 69.5486 201.3 74.4233 201.3C79.298 201.305 83.2489 205.256 83.2489 210.126Z" fill="#BADAF4"/>
<path d="M112.485 209.939C112.485 214.417 108.855 218.047 104.377 218.047C99.8992 218.047 96.2695 214.417 96.2695 209.939C96.2695 205.461 99.8992 201.832 104.377 201.832C108.855 201.832 112.485 205.461 112.485 209.939Z" fill="#BADAF4"/>
<path d="M140.22 210.315C140.22 214.547 136.791 217.976 132.559 217.976C128.327 217.976 124.898 214.547 124.898 210.315C124.898 206.083 128.327 202.654 132.559 202.654C136.791 202.654 140.22 206.083 140.22 210.315Z" fill="#BADAF4"/>
<path d="M165.661 210.319C165.661 214.285 162.443 217.503 158.477 217.503C154.511 217.503 151.293 214.285 151.293 210.319C151.293 206.353 154.511 203.135 158.477 203.135C162.443 203.135 165.661 206.353 165.661 210.319Z" fill="#BADAF4"/>
<path d="M189.521 210.322C189.521 214.027 186.519 217.034 182.809 217.034C179.104 217.034 176.102 214.032 176.102 210.322C176.102 206.617 179.104 203.615 182.809 203.615C186.519 203.615 189.521 206.617 189.521 210.322Z" fill="#BADAF4"/>
<path d="M211.001 210.32C211.001 213.713 208.249 216.464 204.856 216.464C201.462 216.464 198.711 213.713 198.711 210.32C198.711 206.926 201.462 204.175 204.856 204.175C208.249 204.175 211.001 206.926 211.001 210.32Z" fill="#BADAF4"/>
</svg>
