<svg style="display: none;" aria-hidden="true" xmlns="http://www.w3.org/2000/svg" xmlns:xlink="http://www.w3.org/1999/xlink"><symbol viewBox="0 0 30 18" id="arrow"><path d="M21.4921 0.857666L20.0779 2.27185L26.0777 8.27167H0V10.2717H26.0775L20.0779 16.2714L21.4921 17.6855L29.9061 9.2716L21.4921 0.857666Z"/></symbol><symbol viewBox="0 0 48 48" id="calendar"><g clip-path="url(#ba)"><path d="M18 22H14V26H18V22ZM26 22H22V26H26V22ZM34 22H30V26H34V22ZM38 8H36V4H32V8H16V4H12V8H10C7.78 8 6.02 9.8 6.02 12L6 40C6 42.2 7.78 44 10 44H38C40.2 44 42 42.2 42 40V12C42 9.8 40.2 8 38 8ZM38 40H10V18H38V40Z"/></g><defs><clipPath id="ba"><path d="M0 0H48V48H0z"/></clipPath></defs></symbol><symbol viewBox="0 0 12 12" id="call"><path d="M9.12306 7.93849C8.73102 7.55144 8.24159 7.55144 7.85205 7.93849 7.55489 8.23314 7.25774 8.5278 6.96558 8.82745 6.88567 8.90985 6.81825 8.92733 6.72087 8.8724 6.52859 8.76752 6.32383 8.68262 6.13904 8.56775 5.27755 8.02588 4.55589 7.3292 3.91664 6.54511 3.59951 6.15557 3.31734 5.73855 3.12007 5.2691 3.08011 5.17421 3.0876 5.11179 3.16501 5.03438 3.46217 4.74721 3.75183 4.45255 4.04399 4.1579 4.45101 3.74838 4.45101 3.26894 4.04149 2.85692 3.80926 2.62219 3.57703 2.39246 3.3448 2.15773 3.10508 1.91801 2.86786 1.6758 2.62564 1.43857 2.2336 1.05652 1.74417 1.05652 1.35463 1.44107 1.05498 1.73573.767811 2.03787.463166 2.32754.180995 2.59472.0386615 2.92184.00869642 3.3039-.0387482 3.92567.113574 4.51249.328324 5.08432.767811 6.26794 1.43703 7.31921 2.24858 8.28308 3.3448 9.58656 4.65328 10.6179 6.18399 11.362 6.87319 11.6966 7.58736 11.9538 8.36395 11.9962 8.89833 12.0262 9.36278 11.8914 9.73485 11.4744 9.98955 11.1897 10.2767 10.93 10.5464 10.6578 10.9459 10.2533 10.9484 9.76385 10.5514 9.36432 10.077 8.88738 9.60001 8.41293 9.12306 7.93849zM8.64434 5.94832L9.56577 5.791C9.42094 4.94449 9.0214 4.17788 8.41461 3.56859 7.77286 2.92684 6.96131 2.52232 6.06735 2.39746L5.9375 3.32388C6.62919 3.42127 7.25846 3.7334 7.75538 4.23032 8.22483 4.69977 8.53197 5.29408 8.64434 5.94832zM10.0878 1.94273C9.02405.878975 7.67812.207258 6.19235 0L6.0625.926419C7.346 1.10621 8.50964 1.68803 9.42857 2.60446 10.3001 3.47594 10.8719 4.57716 11.0791 5.78825L12.0006 5.63093C11.7584 4.22757 11.0966 2.95405 10.0878 1.94273z"/></symbol><symbol viewBox="0 0 25 25" id="check"><path d="M4.10938 12.3056L10.2632 18.4594L20.5196 6.15173" stroke-width="4.615" stroke-linecap="round" stroke-linejoin="round"/></symbol><symbol viewBox="0 0 48 48" id="check-list"><g clip-path="url(#ea)"><path d="M38 6H29.64C28.8 3.68 26.6 2 24 2C21.4 2 19.2 3.68 18.36 6H10C7.8 6 6 7.8 6 10V38C6 40.2 7.8 42 10 42H38C40.2 42 42 40.2 42 38V10C42 7.8 40.2 6 38 6ZM24 6C25.1 6 26 6.9 26 8C26 9.1 25.1 10 24 10C22.9 10 22 9.1 22 8C22 6.9 22.9 6 24 6ZM20 34L12 26L14.82 23.18L20 28.34L33.18 15.16L36 18L20 34Z"/></g><defs><clipPath id="ea"><path d="M0 0H48V48H0z"/></clipPath></defs></symbol><symbol viewBox="0 0 48 48" id="cleaning-tools"><path d="M5.25 19.3125C5.25062 18.7657 5.46811 18.2414 5.85477 17.8548C6.24143 17.4681 6.76568 17.2506 7.3125 17.25H15.1875C15.7343 17.2506 16.2586 17.4681 16.6452 17.8548C17.0319 18.2414 17.2494 18.7657 17.25 19.3125V23.25H18.75V19.3125C18.7489 18.368 18.3732 17.4625 17.7054 16.7946C17.0375 16.1268 16.132 15.7511 15.1875 15.75H15V11.4375C14.9995 10.9901 14.8215 10.5612 14.5052 10.2448C14.1888 9.92846 13.7599 9.75051 13.3125 9.75H9.1875C8.7401 9.75051 8.31118 9.92846 7.99482 10.2448C7.67846 10.5612 7.50051 10.9901 7.5 11.4375V15.75H7.3125C6.368 15.7511 5.46248 16.1268 4.79462 16.7946C4.12675 17.4625 3.75107 18.368 3.75 19.3125V24H5.25V19.3125ZM9 11.4375C9.00006 11.3878 9.01983 11.3401 9.05498 11.305C9.09013 11.2698 9.13779 11.2501 9.1875 11.25H13.3125C13.3622 11.2501 13.4099 11.2698 13.445 11.305C13.4802 11.3401 13.4999 11.3878 13.5 11.4375V15.75H9V11.4375Z"/><path d="M15.75 24V21.1875C15.7495 20.7401 15.5715 20.3112 15.2552 19.9948 14.9388 19.6785 14.5099 19.5005 14.0625 19.5H8.4375C7.9901 19.5005 7.56118 19.6785 7.24482 19.9948 6.92846 20.3112 6.75051 20.7401 6.75 21.1875V24H8.25V21.1875C8.25006 21.1378 8.26983 21.0901 8.30498 21.055 8.34013 21.0198 8.38779 21.0001 8.4375 21H14.0625C14.1122 21.0001 14.1599 21.0198 14.195 21.055 14.2302 21.0901 14.2499 21.1378 14.25 21.1875V24H15.75zM6.75 39C6.30499 39 5.86998 39.132 5.49997 39.3792 5.12996 39.6264 4.84157 39.9778 4.67127 40.389 4.50097 40.8001 4.45642 41.2525 4.54323 41.689 4.63005 42.1254 4.84434 42.5263 5.15901 42.841 5.47368 43.1557 5.87459 43.3699 6.31105 43.4568 6.74751 43.5436 7.1999 43.499 7.61104 43.3287 8.02217 43.1584 8.37357 42.87 8.62081 42.5 8.86804 42.13 9 41.695 9 41.25 8.99933 40.6535 8.76206 40.0816 8.34025 39.6598 7.91843 39.2379 7.34653 39.0007 6.75 39zM6.75 42C6.60167 42 6.45666 41.956 6.33332 41.8736 6.20999 41.7912 6.11386 41.6741 6.05709 41.537 6.00033 41.4 5.98547 41.2492 6.01441 41.1037 6.04335 40.9582 6.11478 40.8246 6.21967 40.7197 6.32456 40.6148 6.4582 40.5433 6.60368 40.5144 6.74917 40.4855 6.89997 40.5003 7.03701 40.5571 7.17406 40.6139 7.29119 40.71 7.3736 40.8333 7.45601 40.9567 7.5 41.1017 7.5 41.25 7.49977 41.4488 7.42068 41.6395 7.28008 41.7801 7.13948 41.9207 6.94884 41.9998 6.75 42zM18.0638 15.3027C18.106 15.3984 18.1677 15.4842 18.2451 15.5546 18.3224 15.625 18.4136 15.6784 18.5128 15.7115L20.7628 16.4615C20.903 16.5082 21.0539 16.5125 21.1965 16.4738 21.3391 16.435 21.4671 16.355 21.5644 16.2438L25.5 11.7461V13.2636L20.3856 20.5699C20.2973 20.6959 20.25 20.8461 20.25 21V23.25H21.75V21.2364L26.6405 14.25H30.192L32.25 21.11V24H33.75V21C33.75 20.927 33.7393 20.8544 33.7184 20.7845L31.5 13.3899V10.5 10.4978C31.5 10.4929 31.4999 10.488 31.4998 10.4831L31.4997 10.4795C31.4996 10.4744 31.4994 10.4693 31.4992 10.4641L31.4988 10.4574 31.4983 10.4487C31.4978 10.4428 31.4974 10.437 31.4969 10.4312L31.4967 10.4296C31.4865 10.3195 31.4519 10.213 31.3955 10.1179L28.4012 4.87793C28.3356 4.76312 28.2408 4.66769 28.1265 4.60132 28.0121 4.53495 27.8822 4.5 27.75 4.5H18.75C18.5511 4.5 18.3603 4.57902 18.2197 4.71967 18.079 4.86032 18 5.05109 18 5.25V7.5C18 7.65742 18.0495 7.81084 18.1416 7.93855 18.2336 8.06626 18.3635 8.16177 18.5128 8.21156L19.6112 8.57767 19.5536 8.72152C19.5139 8.8209 19.4959 8.92765 19.5008 9.03458 19.5057 9.14151 19.5335 9.24615 19.5822 9.34146 19.631 9.43677 19.6995 9.52054 19.7833 9.58714 19.8671 9.65374 19.9642 9.70163 20.0681 9.72758L20.2521 9.7736 18.0646 14.6955C18.0222 14.791 18.0002 14.8944 18 14.999 17.9999 15.1035 18.0216 15.207 18.0638 15.3027zM27 12.75V11.25H30V12.75H27zM22.2578 6H27.3148L29.4576 9.75H26.3423L21.2655 8.4808 22.2578 6zM19.5 6.95938V6H20.6423L20.1693 7.18245 19.5 6.95938zM21.7295 10.1429L24.3389 10.7953 20.764 14.8808 19.7709 14.5497 21.7295 10.1429z"/><path d="M46.374 38.584L42.1523 32.2515C41.9985 32.0201 41.7897 31.8304 41.5447 31.6993C41.2997 31.5682 41.0261 31.4997 40.7482 31.5H39.75V8.25H38.25V31.5H36.75V3.1875C36.7501 3.13779 36.7698 3.09013 36.805 3.05498C36.8401 3.01983 36.8878 3.00006 36.9375 3H38.0625C38.1122 3.00006 38.1599 3.01983 38.195 3.05498C38.2302 3.09013 38.2499 3.13779 38.25 3.1875V6.75H39.75V3.1875C39.7495 2.7401 39.5715 2.31118 39.2552 1.99482C38.9388 1.67846 38.5099 1.50051 38.0625 1.5H36.9375C36.4901 1.50051 36.0612 1.67846 35.7448 1.99482C35.4285 2.31118 35.2505 2.7401 35.25 3.1875V25.5H27C27 25.3011 26.921 25.1103 26.7803 24.9697C26.6397 24.829 26.4489 24.75 26.25 24.75H13.5C13.3011 24.75 13.1103 24.829 12.9697 24.9697C12.829 25.1103 12.75 25.3011 12.75 25.5H2.25C2.05109 25.5 1.86032 25.579 1.71967 25.7197C1.57902 25.8603 1.5 26.0511 1.5 26.25V27.375C1.50078 28.071 1.77759 28.7382 2.26971 29.2303C2.76182 29.7224 3.42905 29.9992 4.125 30H4.5V33H6V30H12.75V39C12.75 39.1989 12.829 39.3897 12.9697 39.5303C13.1103 39.671 13.3011 39.75 13.5 39.75H22.5V38.25H14.25V36H25.5V38.25H24V39.75H26.25C26.4489 39.75 26.6397 39.671 26.7803 39.5303C26.921 39.3897 27 39.1989 27 39V30H35.25V31.5H34.2518C33.9739 31.4997 33.7003 31.5682 33.4553 31.6993C33.2103 31.8304 33.0015 32.0201 32.8477 32.2515L28.626 38.584C28.5438 38.7072 28.5 38.8519 28.5 39V45H10.4207C11.2114 44.2255 11.7371 43.2208 11.9227 42.1296C12.1082 41.0384 11.944 39.9164 11.4537 38.9241C10.9634 37.9318 10.1719 37.1198 9.19244 36.6042C8.21297 36.0887 7.0956 35.8959 6 36.0534V34.5H4.5V36.507C3.42303 37.0178 2.55195 37.8799 2.03003 38.9515C1.5081 40.0232 1.3664 41.2405 1.62823 42.4034C1.89005 43.5662 2.53982 44.6054 3.47067 45.3499C4.40152 46.0945 5.55802 46.5 6.75 46.5C6.87607 46.5 7.00107 46.4956 7.125 46.4867V46.5H45.75C45.9489 46.5 46.1397 46.421 46.2803 46.2803C46.421 46.1397 46.5 45.9489 46.5 45.75V39C46.5 38.8519 46.4562 38.7072 46.374 38.584ZM25.5 26.25V31.5H14.25V26.25H25.5ZM4.125 28.5C3.82673 28.4997 3.54078 28.381 3.32987 28.1701C3.11897 27.9592 3.00033 27.6733 3 27.375V27H12.75V28.5H4.125ZM14.25 34.5V33H25.5V34.5H14.25ZM27 28.5V27H35.25V28.5H27ZM3 41.25C3 40.5083 3.21993 39.7833 3.63199 39.1666C4.04404 38.5499 4.62971 38.0693 5.31494 37.7855C6.00016 37.5016 6.75416 37.4274 7.48159 37.5721C8.20902 37.7168 8.8772 38.0739 9.40165 38.5984C9.9261 39.1228 10.2833 39.791 10.4279 40.5184C10.5726 41.2458 10.4984 41.9998 10.2145 42.6851C9.93072 43.3703 9.45007 43.956 8.83339 44.368C8.2167 44.7801 7.49168 45 6.75 45C5.75578 44.9989 4.80261 44.6034 4.0996 43.9004C3.39658 43.1974 3.00113 42.2442 3 41.25ZM34.0957 33.0835C34.1128 33.0578 34.136 33.0367 34.1632 33.0221C34.1905 33.0076 34.2209 33 34.2518 33H40.7482C40.7791 33 40.8095 33.0076 40.8368 33.0221C40.864 33.0367 40.8872 33.0578 40.9043 33.0835L44.8486 39H30.1514L34.0957 33.0835ZM42 45V42H40.5V45H38.25V42H36.75V45H34.5V42H33V45H30V40.5H45V45H42Z"/><path d="M34.5 35.25H36V36.75H34.5V35.25zM39 35.25H40.5V36.75H39V35.25zM42.75 12H44.25V13.5H42.75V12zM42.75 15H44.25V16.5H42.75V15zM41.25 13.5H42.75V15H41.25V13.5zM44.25 13.5H45.75V15H44.25V13.5zM5.25 3.75H6.75V5.25H5.25V3.75zM5.25 6.75H6.75V8.25H5.25V6.75zM3.75 5.25H5.25V6.75H3.75V5.25zM6.75 5.25H8.25V6.75H6.75V5.25z"/></symbol><symbol viewBox="0 0 20 20" id="facebook"><path d="M8.07969 11.0415C8.01969 11.0415 6.69969 11.0415 6.09969 11.0415C5.77969 11.0415 5.67969 10.9215 5.67969 10.6215C5.67969 9.82148 5.67969 9.00148 5.67969 8.20148C5.67969 7.88148 5.79969 7.78148 6.09969 7.78148H8.07969C8.07969 7.72148 8.07969 6.56148 8.07969 6.02148C8.07969 5.22148 8.21969 4.46148 8.61969 3.76148C9.03969 3.04148 9.63969 2.56148 10.3997 2.28148C10.8997 2.10148 11.3997 2.02148 11.9397 2.02148H13.8997C14.1797 2.02148 14.2997 2.14148 14.2997 2.42148V4.70148C14.2997 4.98148 14.1797 5.10148 13.8997 5.10148C13.3597 5.10148 12.8197 5.10148 12.2797 5.12148C11.7397 5.12148 11.4597 5.38148 11.4597 5.94148C11.4397 6.54148 11.4597 7.12148 11.4597 7.74148H13.7797C14.0997 7.74148 14.2197 7.86148 14.2197 8.18148V10.6015C14.2197 10.9215 14.1197 11.0215 13.7797 11.0215C13.0597 11.0215 11.5197 11.0215 11.4597 11.0215V17.5415C11.4597 17.8815 11.3597 18.0015 10.9997 18.0015C10.1597 18.0015 9.33969 18.0015 8.49969 18.0015C8.19969 18.0015 8.07969 17.8815 8.07969 17.5815C8.07969 15.4815 8.07969 11.1015 8.07969 11.0415Z"/></symbol><symbol viewBox="0 0 48 48" id="human"><g clip-path="url(#ha)"><path d="M24 12C21.8 12 20 10.2 20 8C20 5.8 21.8 4 24 4C26.2 4 28 5.8 28 8C28 10.2 26.2 12 24 12ZM34 4H38V4.8C37.8 9.2 36.4 12.6 33.4 15C32.4 15.8 31.2 16.4 30 16.8V44H26V32H22V44H18V20.2C17.4 20.4 17 20.6 16.8 20.8C15 22.2 14.02 24 14 27V28H10V27C10 23 11.42 19.82 14.22 17.42C16.42 15.62 20 14 24 14C28 14 29.36 13.08 30.96 11.88C32.96 10.28 34 8 34 5V4ZM8 32H14V44H8V32Z"/></g><defs><clipPath id="ha"><path d="M0 0H48V48H0z"/></clipPath></defs></symbol><symbol viewBox="0 0 20 20" id="instagram"><path d="M14.5862 0H5.41381C2.42858 0 0 2.42858 0 5.41381V14.5863C0 17.5714 2.42858 20 5.41381 20H14.5863C17.5714 20 20 17.5714 20 14.5863V5.41381C20 2.42858 17.5714 0 14.5862 0V0ZM18.8275 14.5863C18.8275 16.9249 16.9249 18.8275 14.5862 18.8275H5.41381C3.0751 18.8275 1.17248 16.9249 1.17248 14.5863V5.41381C1.17248 3.0751 3.0751 1.17248 5.41381 1.17248H14.5863C16.9249 1.17248 18.8275 3.0751 18.8275 5.41381V14.5863Z"/><path d="M9.99984 4.53125C6.9844 4.53125 4.53125 6.9844 4.53125 9.99984 4.53125 13.0153 6.9844 15.4684 9.99984 15.4684 13.0153 15.4684 15.4684 13.0153 15.4684 9.99984 15.4684 6.9844 13.0153 4.53125 9.99984 4.53125zM9.99984 14.2959C7.63107 14.2959 5.70373 12.3688 5.70373 9.99984 5.70373 7.63107 7.63107 5.70373 9.99984 5.70373 12.3688 5.70373 14.2959 7.63107 14.2959 9.99984 14.2959 12.3688 12.3688 14.2959 9.99984 14.2959zM15.5964 2.58789C14.7053 2.58789 13.9805 3.31283 13.9805 4.20379 13.9805 5.09491 14.7053 5.81985 15.5964 5.81985 16.4875 5.81985 17.2124 5.09491 17.2124 4.20379 17.2124 3.31268 16.4875 2.58789 15.5964 2.58789zM15.5964 4.64721C15.3519 4.64721 15.153 4.44824 15.153 4.20379 15.153 3.9592 15.3519 3.76037 15.5964 3.76037 15.841 3.76037 16.0399 3.9592 16.0399 4.20379 16.0399 4.44824 15.841 4.64721 15.5964 4.64721z"/></symbol><symbol viewBox="0 0 20 20" id="linkedin"><path d="M4.70899 3.03711C5.62502 3.03786 6.38051 3.79444 6.37853 4.71503 6.37634 5.67897 5.57639 6.4055 4.69771 6.38457 3.80649 6.4026 3.02326 5.65822 3.02344 4.70867 3.02344 3.78773 3.78187 3.03641 4.70899 3.03711zM5.67771 16.961H3.7151C3.46039 16.961 3.25391 16.7545 3.25391 16.4998V8.12721C3.25391 7.8725 3.46039 7.66602 3.7151 7.66602H5.67771C5.93242 7.66602 6.1389 7.8725 6.1389 8.12721V16.4998C6.13885 16.7545 5.93242 16.961 5.67771 16.961zM16.9816 10.604C16.9816 8.84873 15.5587 7.42578 13.8034 7.42578H13.3001C12.3397 7.42578 11.4914 7.90492 10.9811 8.63729 10.9254 8.71711 10.8739 8.80001 10.8266 8.88559 10.8102 8.88313 10.8005 8.88186 10.8003 8.8823V7.85459C10.8003 7.74887 10.7146 7.66311 10.6088 7.66311H8.16022C8.0545 7.66311 7.96875 7.74882 7.96875 7.85459V16.7667C7.96875 16.8725 8.05441 16.9582 8.16014 16.9582L10.6621 16.9588C10.7679 16.9589 10.8536 16.8731 10.8536 16.7673V11.6186C10.8536 10.7286 11.5635 9.98957 12.4534 9.97953 12.9077 9.97439 13.3196 10.1564 13.6164 10.4534 13.9094 10.7462 14.0905 11.151 14.0905 11.5979V16.768C14.0905 16.8737 14.1762 16.9594 14.2819 16.9595L16.79 16.9601C16.8958 16.9601 16.9815 16.8744 16.9815 16.7686V10.604H16.9816z"/></symbol><symbol viewBox="0 0 97 94" id="polygon"><path d="M40.271 2.97822C45.1778 -0.586793 51.8222 -0.586791 56.729 2.97823L91.1525 27.9884C96.0594 31.5534 98.1126 37.8725 96.2383 43.6409L83.0897 84.1082C81.2155 89.8765 75.8401 93.7819 69.7749 93.7819H27.2251C21.1599 93.7819 15.7845 89.8765 13.9103 84.1082L0.761671 43.6409C-1.11257 37.8725 0.940647 31.5534 5.84747 27.9884L40.271 2.97822Z" fill-opacity=".1"/></symbol><symbol viewBox="0 0 28 28" id="send"><g clip-path="url(#la)"><path d="M27.7597 0.240279C27.5463 0.0268881 27.233 -0.0520806 26.9439 0.034599L1.84887 7.56315C0.742984 7.89489 0 8.89348 0 10.0484C0 11.1873 0.764805 12.2013 1.85998 12.5142L12.4578 15.5422L15.4858 26.14C15.7987 27.2351 16.8126 28 17.952 28C19.1065 28 20.1051 27.257 20.4369 26.1511L27.9654 1.056C28.0521 0.766974 27.9731 0.453669 27.7597 0.240279ZM1.64062 10.048C1.64062 9.62361 1.91373 9.25655 2.32028 9.1346L24.299 2.54098L12.8826 13.9573L2.31066 10.9368C1.9162 10.824 1.64062 10.4587 1.64062 10.048ZM18.8654 25.6797C18.7435 26.0862 18.3764 26.3594 17.9516 26.3594C17.5412 26.3594 17.176 26.0838 17.0633 25.6893L14.0427 15.1174L25.4591 3.70101L18.8654 25.6797Z"/></g><defs><clipPath id="la"><path d="M0 0H28V28H0z"/></clipPath></defs></symbol><symbol viewBox="0 0 10 16" id="small-arrow"><path d="M0.442051 8.00005C0.442051 8.2868 0.551539 8.57351 0.770056 8.79214L7.64976 15.6718C8.0874 16.1094 8.79695 16.1094 9.23441 15.6718C9.67186 15.2343 9.67186 14.5249 9.23441 14.0872L3.14686 8.00005L9.23419 1.91282C9.67165 1.47518 9.67165 0.765846 9.23419 0.328424C8.79674 -0.109423 8.08719 -0.109423 7.64955 0.328424L0.769843 7.20795C0.551291 7.42668 0.442051 7.7134 0.442051 8.00005Z"/></symbol><symbol viewBox="0 0 20 20" id="twitter"><path d="M20 3.79875C19.2563 4.125 18.4637 4.34125 17.6375 4.44625C18.4875 3.93875 19.1363 3.14125 19.4412 2.18C18.6488 2.6525 17.7738 2.98625 16.8412 3.1725C16.0887 2.37125 15.0162 1.875 13.8462 1.875C11.5763 1.875 9.74875 3.7175 9.74875 5.97625C9.74875 6.30125 9.77625 6.61375 9.84375 6.91125C6.435 6.745 3.41875 5.11125 1.3925 2.6225C1.03875 3.23625 0.83125 3.93875 0.83125 4.695C0.83125 6.115 1.5625 7.37375 2.6525 8.1025C1.99375 8.09 1.3475 7.89875 0.8 7.5975C0.8 7.61 0.8 7.62625 0.8 7.6425C0.8 9.635 2.22125 11.29 4.085 11.6712C3.75125 11.7625 3.3875 11.8062 3.01 11.8062C2.7475 11.8062 2.4825 11.7913 2.23375 11.7362C2.765 13.36 4.2725 14.5538 6.065 14.5925C4.67 15.6838 2.89875 16.3412 0.98125 16.3412C0.645 16.3412 0.3225 16.3263 0 16.285C1.81625 17.4563 3.96875 18.125 6.29 18.125C13.835 18.125 17.96 11.875 17.96 6.4575C17.96 6.27625 17.9538 6.10125 17.945 5.9275C18.7588 5.35 19.4425 4.62875 20 3.79875Z"/></symbol><symbol viewBox="0 0 53 52" id="users"><path d="M18.9961 9.75C17.4895 9.75599 16.0464 10.3571 14.981 11.4224C13.9157 12.4878 13.3146 13.9309 13.3086 15.4375C13.3086 18.5608 15.8728 21.125 18.9961 21.125C22.1193 21.125 24.6836 18.5608 24.6836 15.4375C24.6836 12.3142 22.1193 9.75 18.9961 9.75ZM33.6211 9.75C32.1145 9.75599 30.6714 10.3571 29.606 11.4224C28.5407 12.4878 27.9396 13.9309 27.9336 15.4375C27.9336 18.5608 30.4978 21.125 33.6211 21.125C36.7443 21.125 39.3086 18.5608 39.3086 15.4375C39.3086 12.3142 36.7443 9.75 33.6211 9.75ZM18.9961 13C20.3611 13 21.4336 14.0725 21.4336 15.4375C21.4336 16.8025 20.3611 17.875 18.9961 17.875C17.6311 17.875 16.5586 16.8025 16.5586 15.4375C16.5586 14.0725 17.6311 13 18.9961 13ZM33.6211 13C34.9861 13 36.0586 14.0725 36.0586 15.4375C36.0586 16.8025 34.9861 17.875 33.6211 17.875C32.2561 17.875 31.1836 16.8025 31.1836 15.4375C31.1836 14.0725 32.2561 13 33.6211 13ZM11.6836 19.5C8.10859 19.5 5.18359 22.425 5.18359 26C5.18359 27.8086 5.95872 29.4401 7.16447 30.6215C6.05837 31.3679 5.15157 32.3735 4.52308 33.5506C3.89459 34.7277 3.56348 36.0406 3.55859 37.375H6.80859C6.80859 34.6645 8.97309 32.5 11.6836 32.5C14.3941 32.5 16.5586 34.6645 16.5586 37.375H19.8086C19.8037 36.0406 19.4726 34.7277 18.8441 33.5506C18.2156 32.3735 17.3088 31.3679 16.2027 30.6215C17.4085 29.4401 18.1836 27.8102 18.1836 26C18.1836 22.425 15.2586 19.5 11.6836 19.5ZM19.8086 37.375C18.793 38.7335 18.1836 40.4414 18.1836 42.25H21.4336C21.4336 39.5395 23.5981 37.375 26.3086 37.375C29.0191 37.375 31.1836 39.5395 31.1836 42.25H34.4336C34.4308 40.4924 33.8609 38.7827 32.8086 37.375C32.2561 36.6389 31.5898 36.01 30.8277 35.4965C32.0335 34.3151 32.8086 32.6852 32.8086 30.875C32.8086 27.3 29.8836 24.375 26.3086 24.375C22.7336 24.375 19.8086 27.3 19.8086 30.875C19.8086 32.6836 20.5837 34.3151 21.7895 35.4965C21.0288 36.0075 20.3592 36.6425 19.8086 37.375ZM32.8086 37.375H36.0586C36.0586 34.6645 38.2231 32.5 40.9336 32.5C43.6441 32.5 45.8086 34.6645 45.8086 37.375H49.0586C49.0537 36.0406 48.7226 34.7277 48.0941 33.5506C47.4656 32.3735 46.5588 31.3679 45.4527 30.6215C46.6585 29.4401 47.4336 27.8102 47.4336 26C47.4336 22.425 44.5086 19.5 40.9336 19.5C37.3586 19.5 34.4336 22.425 34.4336 26C34.4336 27.8086 35.2087 29.4401 36.4145 30.6215C35.3084 31.3679 34.4016 32.3735 33.7731 33.5506C33.1446 34.7277 32.8135 36.0406 32.8086 37.375ZM11.6836 22.75C13.4987 22.75 14.9336 24.1849 14.9336 26C14.9336 27.8151 13.4987 29.25 11.6836 29.25C9.86847 29.25 8.43359 27.8151 8.43359 26C8.43359 24.1849 9.86847 22.75 11.6836 22.75ZM40.9336 22.75C42.7487 22.75 44.1836 24.1849 44.1836 26C44.1836 27.8151 42.7487 29.25 40.9336 29.25C39.1185 29.25 37.6836 27.8151 37.6836 26C37.6836 24.1849 39.1185 22.75 40.9336 22.75ZM26.3086 27.625C28.1237 27.625 29.5586 29.0599 29.5586 30.875C29.5586 32.6901 28.1237 34.125 26.3086 34.125C24.4935 34.125 23.0586 32.6901 23.0586 30.875C23.0586 29.0599 24.4935 27.625 26.3086 27.625Z"/></symbol></svg>