<svg width="20" height="20" viewBox="0 0 20 20" fill="none" xmlns="http://www.w3.org/2000/svg">
<path d="M4.70899 3.03711C5.62502 3.03786 6.38051 3.79444 6.37853 4.71503C6.37634 5.67897 5.57639 6.4055 4.69771 6.38457C3.80649 6.4026 3.02326 5.65822 3.02344 4.70867C3.02344 3.78773 3.78187 3.03641 4.70899 3.03711Z" fill="#1F6BFF"/>
<path d="M5.67771 16.961H3.7151C3.46039 16.961 3.25391 16.7545 3.25391 16.4998V8.12721C3.25391 7.8725 3.46039 7.66602 3.7151 7.66602H5.67771C5.93242 7.66602 6.1389 7.8725 6.1389 8.12721V16.4998C6.13885 16.7545 5.93242 16.961 5.67771 16.961Z" fill="#1F6BFF"/>
<path d="M16.9816 10.604C16.9816 8.84873 15.5587 7.42578 13.8034 7.42578H13.3001C12.3397 7.42578 11.4914 7.90492 10.9811 8.63729C10.9254 8.71711 10.8739 8.80001 10.8266 8.88559C10.8102 8.88313 10.8005 8.88186 10.8003 8.8823V7.85459C10.8003 7.74887 10.7146 7.66311 10.6088 7.66311H8.16022C8.0545 7.66311 7.96875 7.74882 7.96875 7.85459V16.7667C7.96875 16.8725 8.05441 16.9582 8.16014 16.9582L10.6621 16.9588C10.7679 16.9589 10.8536 16.8731 10.8536 16.7673V11.6186C10.8536 10.7286 11.5635 9.98957 12.4534 9.97953C12.9077 9.97439 13.3196 10.1564 13.6164 10.4534C13.9094 10.7462 14.0905 11.151 14.0905 11.5979V16.768C14.0905 16.8737 14.1762 16.9594 14.2819 16.9595L16.79 16.9601C16.8958 16.9601 16.9815 16.8744 16.9815 16.7686V10.604H16.9816Z" fill="#1F6BFF"/>
</svg>
