<svg width="28" height="28" viewBox="0 0 28 28" fill="none" xmlns="http://www.w3.org/2000/svg">
<g clip-path="url(#clip0_0_104)">
<path d="M27.7597 0.240279C27.5463 0.0268881 27.233 -0.0520806 26.9439 0.034599L1.84887 7.56315C0.742984 7.89489 0 8.89348 0 10.0484C0 11.1873 0.764805 12.2013 1.85998 12.5142L12.4578 15.5422L15.4858 26.14C15.7987 27.2351 16.8126 28 17.952 28C19.1065 28 20.1051 27.257 20.4369 26.1511L27.9654 1.056C28.0521 0.766974 27.9731 0.453669 27.7597 0.240279ZM1.64062 10.048C1.64062 9.62361 1.91373 9.25655 2.32028 9.1346L24.299 2.54098L12.8826 13.9573L2.31066 10.9368C1.9162 10.824 1.64062 10.4587 1.64062 10.048ZM18.8654 25.6797C18.7435 26.0862 18.3764 26.3594 17.9516 26.3594C17.5412 26.3594 17.176 26.0838 17.0633 25.6893L14.0427 15.1174L25.4591 3.70101L18.8654 25.6797Z" fill="white"/>
</g>
<defs>
<clipPath id="clip0_0_104">
<rect width="28" height="28" fill="white"/>
</clipPath>
</defs>
</svg>
