<svg width="53" height="52" viewBox="0 0 53 52" fill="none" xmlns="http://www.w3.org/2000/svg">
<path d="M18.9961 9.75C17.4895 9.75599 16.0464 10.3571 14.981 11.4224C13.9157 12.4878 13.3146 13.9309 13.3086 15.4375C13.3086 18.5608 15.8728 21.125 18.9961 21.125C22.1193 21.125 24.6836 18.5608 24.6836 15.4375C24.6836 12.3142 22.1193 9.75 18.9961 9.75ZM33.6211 9.75C32.1145 9.75599 30.6714 10.3571 29.606 11.4224C28.5407 12.4878 27.9396 13.9309 27.9336 15.4375C27.9336 18.5608 30.4978 21.125 33.6211 21.125C36.7443 21.125 39.3086 18.5608 39.3086 15.4375C39.3086 12.3142 36.7443 9.75 33.6211 9.75ZM18.9961 13C20.3611 13 21.4336 14.0725 21.4336 15.4375C21.4336 16.8025 20.3611 17.875 18.9961 17.875C17.6311 17.875 16.5586 16.8025 16.5586 15.4375C16.5586 14.0725 17.6311 13 18.9961 13ZM33.6211 13C34.9861 13 36.0586 14.0725 36.0586 15.4375C36.0586 16.8025 34.9861 17.875 33.6211 17.875C32.2561 17.875 31.1836 16.8025 31.1836 15.4375C31.1836 14.0725 32.2561 13 33.6211 13ZM11.6836 19.5C8.10859 19.5 5.18359 22.425 5.18359 26C5.18359 27.8086 5.95872 29.4401 7.16447 30.6215C6.05837 31.3679 5.15157 32.3735 4.52308 33.5506C3.89459 34.7277 3.56348 36.0406 3.55859 37.375H6.80859C6.80859 34.6645 8.97309 32.5 11.6836 32.5C14.3941 32.5 16.5586 34.6645 16.5586 37.375H19.8086C19.8037 36.0406 19.4726 34.7277 18.8441 33.5506C18.2156 32.3735 17.3088 31.3679 16.2027 30.6215C17.4085 29.4401 18.1836 27.8102 18.1836 26C18.1836 22.425 15.2586 19.5 11.6836 19.5ZM19.8086 37.375C18.793 38.7335 18.1836 40.4414 18.1836 42.25H21.4336C21.4336 39.5395 23.5981 37.375 26.3086 37.375C29.0191 37.375 31.1836 39.5395 31.1836 42.25H34.4336C34.4308 40.4924 33.8609 38.7827 32.8086 37.375C32.2561 36.6389 31.5898 36.01 30.8277 35.4965C32.0335 34.3151 32.8086 32.6852 32.8086 30.875C32.8086 27.3 29.8836 24.375 26.3086 24.375C22.7336 24.375 19.8086 27.3 19.8086 30.875C19.8086 32.6836 20.5837 34.3151 21.7895 35.4965C21.0288 36.0075 20.3592 36.6425 19.8086 37.375ZM32.8086 37.375H36.0586C36.0586 34.6645 38.2231 32.5 40.9336 32.5C43.6441 32.5 45.8086 34.6645 45.8086 37.375H49.0586C49.0537 36.0406 48.7226 34.7277 48.0941 33.5506C47.4656 32.3735 46.5588 31.3679 45.4527 30.6215C46.6585 29.4401 47.4336 27.8102 47.4336 26C47.4336 22.425 44.5086 19.5 40.9336 19.5C37.3586 19.5 34.4336 22.425 34.4336 26C34.4336 27.8086 35.2087 29.4401 36.4145 30.6215C35.3084 31.3679 34.4016 32.3735 33.7731 33.5506C33.1446 34.7277 32.8135 36.0406 32.8086 37.375ZM11.6836 22.75C13.4987 22.75 14.9336 24.1849 14.9336 26C14.9336 27.8151 13.4987 29.25 11.6836 29.25C9.86847 29.25 8.43359 27.8151 8.43359 26C8.43359 24.1849 9.86847 22.75 11.6836 22.75ZM40.9336 22.75C42.7487 22.75 44.1836 24.1849 44.1836 26C44.1836 27.8151 42.7487 29.25 40.9336 29.25C39.1185 29.25 37.6836 27.8151 37.6836 26C37.6836 24.1849 39.1185 22.75 40.9336 22.75ZM26.3086 27.625C28.1237 27.625 29.5586 29.0599 29.5586 30.875C29.5586 32.6901 28.1237 34.125 26.3086 34.125C24.4935 34.125 23.0586 32.6901 23.0586 30.875C23.0586 29.0599 24.4935 27.625 26.3086 27.625Z" fill="white"/>
</svg>
